<svg xmlns="http://www.w3.org/2000/svg" style="border: 0 !important; clip: rect(0 0 0 0) !important; height: 1px !important; margin: -1px !important; overflow: hidden !important; padding: 0 !important; position: absolute !important; width: 1px !important;">

  <symbol id="cart" viewBox="0 0 17 20">
    <title>cart</title>
    <path d="M.18 5.333C.07 5.183.007 5 .007 4.8c0-.502.4-.903.897-.903h11.29V1.713c0-.5.403-.906.902-.906.212 0 .406.072.56.193h1.475c.5 0 .913.405.913.904 0 .502-.408.903-.912.903H14v8.887c0 .5-.405.906-.904.906H4.885c-.303 0-.57-.148-.735-.375-.21-.067-.398-.21-.517-.415L.28 6.002c-.122-.21-.152-.45-.1-.67zm2.014.37l2.94 5.09h7.06v-5.09h-10zm2.852 10.2c-.188-.063-.39-.096-.598-.096-1.063 0-1.925.862-1.925 1.925 0 1.063.862 1.925 1.925 1.925 1.063 0 1.925-.862 1.925-1.925 0-.032 0-.064-.003-.096h4.825l-.002.096c0 1.063.862 1.925 1.925 1.925 1.063 0 1.924-.862 1.924-1.925 0-1.063-.86-1.925-1.924-1.925-.268 0-.524.055-.755.154-.137-.083-.3-.13-.473-.13H5.404c-.127 0-.248.025-.358.072z" fill="currentColor" fill-rule="evenodd"/>
  </symbol>

  <symbol id='search' viewBox="0 0 16 16">
    <title>search</title>
    <path d="M4.056 13.456L1.8 15.71c-.387.39-1.022.384-1.404.003l-.106-.106c-.387-.388-.387-1.017.002-1.405l2.237-2.237C1.567 10.712.996 9.148.996 7.45.997 3.337 4.355 0 8.497 0c4.142 0 7.5 3.336 7.5 7.45 0 4.116-3.358 7.452-7.5 7.452-1.662 0-3.198-.537-4.44-1.446zm4.44-.48c3.036 0 5.498-2.457 5.498-5.49 0-3.03-2.462-5.49-5.5-5.49-3.036 0-5.498 2.46-5.498 5.49 0 3.033 2.462 5.49 5.5 5.49z" fill="currentColor" fill-rule="evenodd"/>
  </symbol>

  <symbol id='filter' viewBox="0 0 24 18">
    <title>filter</title>
    <path d="M8 8V6.99C8 6.445 7.556 6 7 6c-.552 0-1 .45-1 .99v4.02c0 .546.444.99 1 .99.552 0 1-.45 1-.99V10h15c.552 0 1-.444 1-1 0-.552-.455-1-1-1H8zm8 8v1.01c0 .54.448.99 1 .99.556 0 1-.444 1-.99v-4.02c0-.54-.448-.99-1-.99-.556 0-1 .444-1 .99V14H1c-.545 0-1 .448-1 1 0 .556.448 1 1 1h15zm0-12v1.01c0 .54.448.99 1 .99.556 0 1-.444 1-.99V.99c0-.54-.448-.99-1-.99-.556 0-1 .444-1 .99V2H1c-.545 0-1 .448-1 1 0 .556.448 1 1 1h15zm4-1c0-.552.443-1 1.01-1h1.98C23.55 2 24 2.444 24 3c0 .552-.443 1-1.01 1h-1.98C20.45 4 20 3.556 20 3zm0 12c0-.552.443-1 1.01-1h1.98c.558 0 1.01.444 1.01 1 0 .552-.443 1-1.01 1h-1.98c-.558 0-1.01-.444-1.01-1zM4 9c0 .556-.452 1-1.01 1H1.01C.442 10 0 9.552 0 9c0-.556.452-1 1.01-1h1.98C3.558 8 4 8.448 4 9z" fill="currentColor" fill-rule="evenodd"/>
  </symbol>

  <symbol id='menu' viewBox="0 0 24 14">
    <title>menu</title>
    <path d="M0 1c0-.552.447-1 1-1h22c.552 0 1 .444 1 1 0 .552-.447 1-1 1H1C.45 2 0 1.556 0 1zm24 6c0 .556-.444 1-.992 1H4.992C4.455 8 4 7.552 4 7c0-.556.444-1 .992-1h18.016c.537 0 .992.448.992 1zm0 6c0 .556-.444 1-.992 1H4.992C4.455 14 4 13.552 4 13c0-.556.444-1 .992-1h18.016c.537 0 .992.448.992 1z" fill="currentColor" fill-rule="evenodd"/>
  </symbol>

  <symbol id='trash' viewBox="0 0 14 15">
    <title>trash</title>
    <path d="M7.995 12.938h2.008v-7.96H7.995v7.96zm-1.992 0V4.996 4.98h-2.01v7.958h2.01zm1.367 1.99c-.114.047-.24.072-.37.072s-.256-.025-.37-.07H3.366c-.115.045-.24.07-.37.07-.55 0-.996-.456-.996-1.002v-9.02H.996C.446 4.98 0 4.54 0 3.984c0-.55.45-.995.996-.995h12.008c.55 0 .996.442.996.995 0 .55-.45.996-.996.996h-1.01v8.852c.004.034.006.067.006.1 0 .038-.002.074-.006.11-.022.533-.456.958-.995.958-.13 0-.254-.025-.367-.07H7.37zM4 .997C4 .446 4.45 0 4.99 0h4.02c.546 0 .99.442.99.996 0 .55-.45.996-.99.996H4.99c-.546 0-.99-.442-.99-.996z" fill="currentColor" fill-rule="evenodd"/>
  </symbol>

  <symbol id='login' viewBox="0 0 17 16">
    <title>login</title>
    <path d="M8.536 9H1.002C.456 9 0 8.552 0 8c0-.556.45-1 1.002-1h7.584l-.88-.88c-.392-.392-.39-1.022 0-1.413.394-.393 1.025-.39 1.415 0l2.123 2.122c.082.08.147.174.195.273.33.163.562.504.562.897 0 .412-.246.762-.6.916-.042.073-.094.142-.157.205L9.12 11.244c-.39.39-1.02.393-1.413 0-.39-.39-.393-1.02 0-1.414l.83-.83zM15 14V2H5v1c0 .552-.448 1-1 1s-1-.448-1-1V1c0-.556.45-1 1.006-1H16c.556 0 1 .448 1 1v14c0 .555-.448 1-1 1H4.003 4c-.277 0-.525-.112-.706-.293C3.112 15.524 3 15.275 3 15v-.005-1.984c0-.567.448-1.01 1-1.01.556 0 1 .452 1 1.01V14h10z" fill="currentColor" fill-rule="evenodd"/>
  </symbol>

  <symbol id='flag-ru-RU' viewBox="0 0 512 512">
    <title>flag-ru-RU</title>
    <circle cx="256" cy="256" r="256" fill="#F0F0F0"/>
    <path d="M496.077 345.043C506.367 317.31 512 287.313 512 256s-5.632-61.31-15.923-89.043H15.923C5.633 194.69 0 224.687 0 256s5.633 61.31 15.923 89.043L256 367.303l240.077-22.26z" fill="#0052B4"/>
    <path d="M256 512c110.07 0 203.906-69.472 240.077-166.957H15.923C52.093 442.528 145.93 512 256 512z" fill="#D80027"/>
  </symbol>

  <symbol id='flag-en-US' viewBox="0 0 512 512">
    <title>flag-en-US</title>
    <circle cx="256" cy="256" r="256" fill="#F0F0F0"/>
    <g fill="#D80027">
      <path d="M244.87 256H512c0-23.106-3.08-45.49-8.82-66.783H244.87V256zM244.87 122.435h229.556c-15.67-25.572-35.708-48.175-59.07-66.783H244.87v66.783zM256 512c60.25 0 115.626-20.824 159.356-55.652H96.644C140.374 491.176 195.75 512 256 512zM37.574 389.565h436.852c12.58-20.53 22.338-42.97 28.755-66.783H8.82c6.416 23.814 16.173 46.254 28.754 66.783z"/>
    </g>
    <path d="M118.584 39.978h23.33l-21.7 15.765 8.288 25.51-21.7-15.766-21.698 15.765 7.16-22.037c-19.106 15.915-35.852 34.56-49.652 55.337h7.475l-13.813 10.035c-2.152 3.59-4.216 7.237-6.194 10.938l6.596 20.3-12.306-8.94c-3.06 6.48-5.857 13.108-8.372 19.873l7.267 22.368h26.822l-21.7 15.765 8.29 25.51-21.7-15.765L1.98 224.08C.677 234.536 0 245.19 0 256h256V0c-50.572 0-97.715 14.67-137.416 39.978zm9.918 190.422l-21.7-15.765L85.105 230.4l8.29-25.51-21.7-15.764h26.82l8.29-25.51 8.287 25.51h26.823l-21.7 15.765 8.29 25.51zm-8.29-100.083l8.29 25.51-21.7-15.766-21.698 15.766 8.29-25.51-21.7-15.764h26.82l8.29-25.51 8.287 25.51h26.823l-21.7 15.765zM220.33 230.4l-21.7-15.765L176.93 230.4l8.29-25.51-21.7-15.764h26.82l8.29-25.51 8.287 25.51h26.822l-21.7 15.765 8.288 25.51zm-8.29-100.083l8.29 25.51-21.7-15.766-21.698 15.766 8.29-25.51-21.7-15.764h26.82l8.29-25.51 8.287 25.51h26.822l-21.7 15.765zm0-74.574l8.29 25.51-21.7-15.766-21.698 15.765 8.29-25.51-21.7-15.764h26.82l8.29-25.51 8.287 25.51h26.822l-21.7 15.765z" fill="#0052B4"/>
  </symbol>

  <symbol id='flag-pl-PL' viewBox="0 0 512 512">
    <title>flag-pl-PL</title>
    <circle cx="256" cy="256" r="256" fill="#F0F0F0"/>
    <path d="M512 256c0 141.384-114.616 256-256 256S0 397.384 0 256" fill="#D80027"/>
  </symbol>

  <symbol id='flag-lv-LV' viewBox="0 0 512 512">
    <title>flag-lv-LV</title>
    <circle cx="256" cy="256" r="256" fill="#F0F0F0"/>
    <g fill="#A2001D">
     <path d="M256 0C137.72 0 38.195 80.22 8.82 189.217H503.18C473.805 80.22 374.28 0 256 0zM256 512c118.28 0 217.805-80.22 247.18-189.217H8.82C38.194 431.778 137.72 512 256 512z"/>
    </g>
  </symbol>

  <symbol id='vkontakte' viewBox="0 0 34 19">
    <title>vkontakte</title>
    <path fill-rule="evenodd" d="M31.558 1.287C31.78.545 31.558 0 30.5 0H27c-.89 0-1.3.47-1.523.99 0 0-1.78 4.338-4.3 7.156-.817.816-1.188 1.076-1.632 1.076-.223 0-.557-.26-.557-1.002V1.287C18.988.397 18.742 0 18 0h-5.5c-.556 0-.89.413-.89.804 0 .844 1.26 1.04 1.39 3.412V9.37c0 1.13-.204 1.335-.65 1.335-1.186 0-4.072-4.358-5.783-9.344C6.23.39 5.895 0 5 0H1.5C.5 0 .3.47.3.99c0 .927 1.187 5.525 5.525 11.606C8.717 16.75 12.792 19 16.5 19c2.225 0 2.5-.5 2.5-1.36V14.5c0-1 .21-1.2.915-1.2.52 0 1.41.26 3.486 2.262C25.775 17.935 26.166 19 27.5 19H31c1 0 1.5-.5 1.212-1.487-.316-.983-1.45-2.41-2.952-4.1-.816-.965-2.04-2.004-2.41-2.523-.52-.667-.37-.964 0-1.557 0 0 4.264-6.007 4.708-8.046z"/>
  </symbol>

  <symbol id='facebook' viewBox="0 0 430.113 430.114">
    <title>facebook</title>
    <path d="M158.08 83.3v59.218h-43.384v72.412h43.385v215.183h89.123V214.936h59.805s5.6-34.72 8.316-72.685H247.54V92.74c0-7.4 9.717-17.354 19.32-17.354h48.558V0h-66.02c-93.52-.004-91.317 72.48-91.317 83.3z"/>
  </symbol>

  <symbol id='twitter' viewBox="0 0 90 90">
    <title>twitter</title>
    <path d="M67.26 67.496H45.055c-3.087 0-5.712-1.08-7.87-3.25-2.166-2.172-3.237-4.797-3.237-7.898v-7.904H65.59c2.854 0 5.312-1.025 7.354-3.062 2.04-2.054 3.066-4.51 3.066-7.366 0-2.867-1.025-5.32-3.072-7.366-2.05-2.042-4.515-3.066-7.38-3.066H33.945v-16.33c0-3.09-1.102-5.735-3.29-7.94C28.478 1.108 25.842 0 22.782 0c-3.146 0-5.825 1.09-8.004 3.25C12.59 5.416 11.5 8.084 11.5 11.264v45.09c0 9.273 3.278 17.196 9.837 23.772C27.9 86.716 35.814 90 45.067 90h22.202c3.08 0 5.728-1.107 7.93-3.314 2.202-2.197 3.3-4.85 3.3-7.936 0-3.088-1.098-5.734-3.3-7.94-2.203-2.203-4.853-3.314-7.94-3.314z"/>
  </symbol>

  <symbol id='instagram' viewBox="0 0 97.395 97.395">
    <title>instagram</title>
     <path d="M12.5 0h72.394c6.875 0 12.5 5.09 12.5 12.5v72.395c0 7.41-5.625 12.5-12.5 12.5H12.5c-6.876 0-12.5-5.09-12.5-12.5V12.5C0 5.09 5.624 0 12.5 0zM70.95 10.82c-2.412 0-4.383 1.973-4.383 4.386V25.7c0 2.413 1.97 4.386 4.383 4.386h11.008c2.412 0 4.385-1.973 4.385-4.385V15.207c0-2.413-1.972-4.385-4.384-4.385H70.948zm15.44 30.368h-8.573c.81 2.648 1.25 5.453 1.25 8.355 0 16.2-13.556 29.332-30.275 29.332-16.718 0-30.272-13.132-30.272-29.332 0-2.904.438-5.708 1.25-8.355h-8.945v41.14c0 2.13 1.742 3.873 3.872 3.873h67.822c2.13 0 3.872-1.74 3.872-3.87V41.187h-.003zm-37.6-11.655c-10.8 0-19.56 8.485-19.56 18.953S37.99 67.44 48.79 67.44c10.804 0 19.563-8.486 19.563-18.954s-8.757-18.953-19.56-18.953z"/>
  </symbol>

  <symbol id='visible' viewBox="0 0 17 10">
    <title>visible</title>
    <path d="M8.5 10C3.806 10 0 5.905 0 5c0-.905 3.806-5 8.5-5S17 4.019 17 5c0 .981-3.806 5-8.5 5zm0-2.48c1.38 0 2.5-1.129 2.5-2.522 0-1.393-1.12-2.523-2.5-2.523S6 3.605 6 4.998c0 1.393 1.12 2.523 2.5 2.523z" fill="currentColor" fill-rule="evenodd"/>
  </symbol>
  
</svg>
